<svg id="my-svg" width="100%" xmlns="http://www.w3.org/2000/svg" xmlns:xlink="http://www.w3.org/1999/xlink" style="max-width: 954px; background-color: transparent;" viewBox="0 -70 954 2597" role="graphics-document document" aria-roledescription="c4"><style>#my-svg{font-family:"trebuchet ms",verdana,arial,sans-serif;font-size:16px;fill:#ccc;}@keyframes edge-animation-frame{from{stroke-dashoffset:0;}}@keyframes dash{to{stroke-dashoffset:0;}}#my-svg .edge-animation-slow{stroke-dasharray:9,5!important;stroke-dashoffset:900;animation:dash 50s linear infinite;stroke-linecap:round;}#my-svg .edge-animation-fast{stroke-dasharray:9,5!important;stroke-dashoffset:900;animation:dash 20s linear infinite;stroke-linecap:round;}#my-svg .error-icon{fill:#a44141;}#my-svg .error-text{fill:#ddd;stroke:#ddd;}#my-svg .edge-thickness-normal{stroke-width:1px;}#my-svg .edge-thickness-thick{stroke-width:3.5px;}#my-svg .edge-pattern-solid{stroke-dasharray:0;}#my-svg .edge-thickness-invisible{stroke-width:0;fill:none;}#my-svg .edge-pattern-dashed{stroke-dasharray:3;}#my-svg .edge-pattern-dotted{stroke-dasharray:2;}#my-svg .marker{fill:lightgrey;stroke:lightgrey;}#my-svg .marker.cross{stroke:lightgrey;}#my-svg svg{font-family:"trebuchet ms",verdana,arial,sans-serif;font-size:16px;}#my-svg p{margin:0;}#my-svg .person{stroke:#cccccc;fill:#1f2020;}#my-svg .node .neo-node{stroke:#ccc;}#my-svg [data-look="neo"].node rect,#my-svg [data-look="neo"].cluster rect,#my-svg [data-look="neo"].node polygon{stroke:url(#my-svg-gradient);filter:drop-shadow( 1px 2px 2px rgba(185,185,185,1));}#my-svg [data-look="neo"].swimlane.cluster rect{filter:none;}#my-svg [data-look="neo"].node path{stroke:url(#my-svg-gradient);stroke-width:1px;}#my-svg [data-look="neo"].node .outer-path{filter:drop-shadow( 1px 2px 2px rgba(185,185,185,1));}#my-svg [data-look="neo"].node .neo-line path{stroke:#ccc;filter:none;}#my-svg [data-look="neo"].node circle{stroke:url(#my-svg-gradient);filter:drop-shadow( 1px 2px 2px rgba(185,185,185,1));}#my-svg [data-look="neo"].node circle .state-start{fill:#000000;}#my-svg [data-look="neo"].icon-shape .icon{fill:url(#my-svg-gradient);filter:drop-shadow( 1px 2px 2px rgba(185,185,185,1));}#my-svg [data-look="neo"].icon-shape .icon-neo path{stroke:url(#my-svg-gradient);filter:drop-shadow( 1px 2px 2px rgba(185,185,185,1));}#my-svg :root{--mermaid-font-family:"trebuchet ms",verdana,arial,sans-serif;}</style><g/><defs><symbol id="my-svg-computer" width="24" height="24"><path transform="scale(.5)" d="M2 2v13h20v-13h-20zm18 11h-16v-9h16v9zm-10.228 6l.466-1h3.524l.467 1h-4.457zm14.228 3h-24l2-6h2.104l-1.33 4h18.45l-1.297-4h2.073l2 6zm-5-10h-14v-7h14v7z"/></symbol></defs><defs><symbol id="my-svg-database" fill-rule="evenodd" clip-rule="evenodd"><path transform="scale(.5)" d="M12.258.001l.256.004.255.005.253.008.251.01.249.012.247.015.246.016.242.019.241.02.239.023.236.024.233.027.231.028.229.031.225.032.223.034.22.036.217.038.214.04.211.041.208.043.205.045.201.046.198.048.194.05.191.051.187.053.183.054.18.056.175.057.172.059.168.06.163.061.16.063.155.064.15.066.074.033.073.033.071.034.07.034.069.035.068.035.067.035.066.035.064.036.064.036.062.036.06.036.06.037.058.037.058.037.055.038.055.038.053.038.052.038.051.039.05.039.048.039.047.039.045.04.044.04.043.04.041.04.04.041.039.041.037.041.036.041.034.041.033.042.032.042.03.042.029.042.027.042.026.043.024.043.023.043.021.043.02.043.018.044.017.043.015.044.013.044.012.044.011.045.009.044.007.045.006.045.004.045.002.045.001.045v17l-.001.045-.002.045-.004.045-.006.045-.007.045-.009.044-.011.045-.012.044-.013.044-.015.044-.017.043-.018.044-.02.043-.021.043-.023.043-.024.043-.026.043-.027.042-.029.042-.03.042-.032.042-.033.042-.034.041-.036.041-.037.041-.039.041-.04.041-.041.04-.043.04-.044.04-.045.04-.047.039-.048.039-.05.039-.051.039-.052.038-.053.038-.055.038-.055.038-.058.037-.058.037-.06.037-.06.036-.062.036-.064.036-.064.036-.066.035-.067.035-.068.035-.069.035-.07.034-.071.034-.073.033-.074.033-.15.066-.155.064-.16.063-.163.061-.168.06-.172.059-.175.057-.18.056-.183.054-.187.053-.191.051-.194.05-.198.048-.201.046-.205.045-.208.043-.211.041-.214.04-.217.038-.22.036-.223.034-.225.032-.229.031-.231.028-.233.027-.236.024-.239.023-.241.02-.242.019-.246.016-.247.015-.249.012-.251.01-.253.008-.255.005-.256.004-.258.001-.258-.001-.256-.004-.255-.005-.253-.008-.251-.01-.249-.012-.247-.015-.245-.016-.243-.019-.241-.02-.238-.023-.236-.024-.234-.027-.231-.028-.228-.031-.226-.032-.223-.034-.22-.036-.217-.038-.214-.04-.211-.041-.208-.043-.204-.045-.201-.046-.198-.048-.195-.05-.19-.051-.187-.053-.184-.054-.179-.056-.176-.057-.172-.059-.167-.06-.164-.061-.159-.063-.155-.064-.151-.066-.074-.033-.072-.033-.072-.034-.07-.034-.069-.035-.068-.035-.067-.035-.066-.035-.064-.036-.063-.036-.062-.036-.061-.036-.06-.037-.058-.037-.057-.037-.056-.038-.055-.038-.053-.038-.052-.038-.051-.039-.049-.039-.049-.039-.046-.039-.046-.04-.044-.04-.043-.04-.041-.04-.04-.041-.039-.041-.037-.041-.036-.041-.034-.041-.033-.042-.032-.042-.03-.042-.029-.042-.027-.042-.026-.043-.024-.043-.023-.043-.021-.043-.02-.043-.018-.044-.017-.043-.015-.044-.013-.044-.012-.044-.011-.045-.009-.044-.007-.045-.006-.045-.004-.045-.002-.045-.001-.045v-17l.001-.045.002-.045.004-.045.006-.045.007-.045.009-.044.011-.045.012-.044.013-.044.015-.044.017-.043.018-.044.02-.043.021-.043.023-.043.024-.043.026-.043.027-.042.029-.042.03-.042.032-.042.033-.042.034-.041.036-.041.037-.041.039-.041.04-.041.041-.04.043-.04.044-.04.046-.04.046-.039.049-.039.049-.039.051-.039.052-.038.053-.038.055-.038.056-.038.057-.037.058-.037.06-.037.061-.036.062-.036.063-.036.064-.036.066-.035.067-.035.068-.035.069-.035.07-.034.072-.034.072-.033.074-.033.151-.066.155-.064.159-.063.164-.061.167-.06.172-.059.176-.057.179-.056.184-.054.187-.053.19-.051.195-.05.198-.048.201-.046.204-.045.208-.043.211-.041.214-.04.217-.038.22-.036.223-.034.226-.032.228-.031.231-.028.234-.027.236-.024.238-.023.241-.02.243-.019.245-.016.247-.015.249-.012.251-.01.253-.008.255-.005.256-.004.258-.001.258.001zm-9.258 20.499v.01l.001.021.003.021.004.022.005.021.006.022.007.022.009.023.01.022.011.023.012.023.013.023.015.023.016.024.017.023.018.024.019.024.021.024.022.025.023.024.024.025.052.049.056.05.061.051.066.051.07.051.075.051.079.052.084.052.088.052.092.052.097.052.102.051.105.052.11.052.114.051.119.051.123.051.127.05.131.05.135.05.139.048.144.049.147.047.152.047.155.047.16.045.163.045.167.043.171.043.176.041.178.041.183.039.187.039.19.037.194.035.197.035.202.033.204.031.209.03.212.029.216.027.219.025.222.024.226.021.23.02.233.018.236.016.24.015.243.012.246.01.249.008.253.005.256.004.259.001.26-.001.257-.004.254-.005.25-.008.247-.011.244-.012.241-.014.237-.016.233-.018.231-.021.226-.021.224-.024.22-.026.216-.027.212-.028.21-.031.205-.031.202-.034.198-.034.194-.036.191-.037.187-.039.183-.04.179-.04.175-.042.172-.043.168-.044.163-.045.16-.046.155-.046.152-.047.148-.048.143-.049.139-.049.136-.05.131-.05.126-.05.123-.051.118-.052.114-.051.11-.052.106-.052.101-.052.096-.052.092-.052.088-.053.083-.051.079-.052.074-.052.07-.051.065-.051.06-.051.056-.05.051-.05.023-.024.023-.025.021-.024.02-.024.019-.024.018-.024.017-.024.015-.023.014-.024.013-.023.012-.023.01-.023.01-.022.008-.022.006-.022.006-.022.004-.022.004-.021.001-.021.001-.021v-4.127l-.077.055-.08.053-.083.054-.085.053-.087.052-.09.052-.093.051-.095.05-.097.05-.1.049-.102.049-.105.048-.106.047-.109.047-.111.046-.114.045-.115.045-.118.044-.12.043-.122.042-.124.042-.126.041-.128.04-.13.04-.132.038-.134.038-.135.037-.138.037-.139.035-.142.035-.143.034-.144.033-.147.032-.148.031-.15.03-.151.03-.153.029-.154.027-.156.027-.158.026-.159.025-.161.024-.162.023-.163.022-.165.021-.166.02-.167.019-.169.018-.169.017-.171.016-.173.015-.173.014-.175.013-.175.012-.177.011-.178.01-.179.008-.179.008-.181.006-.182.005-.182.004-.184.003-.184.002h-.37l-.184-.002-.184-.003-.182-.004-.182-.005-.181-.006-.179-.008-.179-.008-.178-.01-.176-.011-.176-.012-.175-.013-.173-.014-.172-.015-.171-.016-.17-.017-.169-.018-.167-.019-.166-.02-.165-.021-.163-.022-.162-.023-.161-.024-.159-.025-.157-.026-.156-.027-.155-.027-.153-.029-.151-.03-.15-.03-.148-.031-.146-.032-.145-.033-.143-.034-.141-.035-.14-.035-.137-.037-.136-.037-.134-.038-.132-.038-.13-.04-.128-.04-.126-.041-.124-.042-.122-.042-.12-.044-.117-.043-.116-.045-.113-.045-.112-.046-.109-.047-.106-.047-.105-.048-.102-.049-.1-.049-.097-.05-.095-.05-.093-.052-.09-.051-.087-.052-.085-.053-.083-.054-.08-.054-.077-.054v4.127zm0-5.654v.011l.001.021.003.021.004.021.005.022.006.022.007.022.009.022.01.022.011.023.012.023.013.023.015.024.016.023.017.024.018.024.019.024.021.024.022.024.023.025.024.024.052.05.056.05.061.05.066.051.07.051.075.052.079.051.084.052.088.052.092.052.097.052.102.052.105.052.11.051.114.051.119.052.123.05.127.051.131.05.135.049.139.049.144.048.147.048.152.047.155.046.16.045.163.045.167.044.171.042.176.042.178.04.183.04.187.038.19.037.194.036.197.034.202.033.204.032.209.03.212.028.216.027.219.025.222.024.226.022.23.02.233.018.236.016.24.014.243.012.246.01.249.008.253.006.256.003.259.001.26-.001.257-.003.254-.006.25-.008.247-.01.244-.012.241-.015.237-.016.233-.018.231-.02.226-.022.224-.024.22-.025.216-.027.212-.029.21-.03.205-.032.202-.033.198-.035.194-.036.191-.037.187-.039.183-.039.179-.041.175-.042.172-.043.168-.044.163-.045.16-.045.155-.047.152-.047.148-.048.143-.048.139-.05.136-.049.131-.05.126-.051.123-.051.118-.051.114-.052.11-.052.106-.052.101-.052.096-.052.092-.052.088-.052.083-.052.079-.052.074-.051.07-.052.065-.051.06-.05.056-.051.051-.049.023-.025.023-.024.021-.025.02-.024.019-.024.018-.024.017-.024.015-.023.014-.023.013-.024.012-.022.01-.023.01-.023.008-.022.006-.022.006-.022.004-.021.004-.022.001-.021.001-.021v-4.139l-.077.054-.08.054-.083.054-.085.052-.087.053-.09.051-.093.051-.095.051-.097.05-.1.049-.102.049-.105.048-.106.047-.109.047-.111.046-.114.045-.115.044-.118.044-.12.044-.122.042-.124.042-.126.041-.128.04-.13.039-.132.039-.134.038-.135.037-.138.036-.139.036-.142.035-.143.033-.144.033-.147.033-.148.031-.15.03-.151.03-.153.028-.154.028-.156.027-.158.026-.159.025-.161.024-.162.023-.163.022-.165.021-.166.02-.167.019-.169.018-.169.017-.171.016-.173.015-.173.014-.175.013-.175.012-.177.011-.178.009-.179.009-.179.007-.181.007-.182.005-.182.004-.184.003-.184.002h-.37l-.184-.002-.184-.003-.182-.004-.182-.005-.181-.007-.179-.007-.179-.009-.178-.009-.176-.011-.176-.012-.175-.013-.173-.014-.172-.015-.171-.016-.17-.017-.169-.018-.167-.019-.166-.02-.165-.021-.163-.022-.162-.023-.161-.024-.159-.025-.157-.026-.156-.027-.155-.028-.153-.028-.151-.03-.15-.03-.148-.031-.146-.033-.145-.033-.143-.033-.141-.035-.14-.036-.137-.036-.136-.037-.134-.038-.132-.039-.13-.039-.128-.04-.126-.041-.124-.042-.122-.043-.12-.043-.117-.044-.116-.044-.113-.046-.112-.046-.109-.046-.106-.047-.105-.048-.102-.049-.1-.049-.097-.05-.095-.051-.093-.051-.09-.051-.087-.053-.085-.052-.083-.054-.08-.054-.077-.054v4.139zm0-5.666v.011l.001.02.003.022.004.021.005.022.006.021.007.022.009.023.01.022.011.023.012.023.013.023.015.023.016.024.017.024.018.023.019.024.021.025.022.024.023.024.024.025.052.05.056.05.061.05.066.051.07.051.075.052.079.051.084.052.088.052.092.052.097.052.102.052.105.051.11.052.114.051.119.051.123.051.127.05.131.05.135.05.139.049.144.048.147.048.152.047.155.046.16.045.163.045.167.043.171.043.176.042.178.04.183.04.187.038.19.037.194.036.197.034.202.033.204.032.209.03.212.028.216.027.219.025.222.024.226.021.23.02.233.018.236.017.24.014.243.012.246.01.249.008.253.006.256.003.259.001.26-.001.257-.003.254-.006.25-.008.247-.01.244-.013.241-.014.237-.016.233-.018.231-.02.226-.022.224-.024.22-.025.216-.027.212-.029.21-.03.205-.032.202-.033.198-.035.194-.036.191-.037.187-.039.183-.039.179-.041.175-.042.172-.043.168-.044.163-.045.16-.045.155-.047.152-.047.148-.048.143-.049.139-.049.136-.049.131-.051.126-.05.123-.051.118-.052.114-.051.11-.052.106-.052.101-.052.096-.052.092-.052.088-.052.083-.052.079-.052.074-.052.07-.051.065-.051.06-.051.056-.05.051-.049.023-.025.023-.025.021-.024.02-.024.019-.024.018-.024.017-.024.015-.023.014-.024.013-.023.012-.023.01-.022.01-.023.008-.022.006-.022.006-.022.004-.022.004-.021.001-.021.001-.021v-4.153l-.077.054-.08.054-.083.053-.085.053-.087.053-.09.051-.093.051-.095.051-.097.05-.1.049-.102.048-.105.048-.106.048-.109.046-.111.046-.114.046-.115.044-.118.044-.12.043-.122.043-.124.042-.126.041-.128.04-.13.039-.132.039-.134.038-.135.037-.138.036-.139.036-.142.034-.143.034-.144.033-.147.032-.148.032-.15.03-.151.03-.153.028-.154.028-.156.027-.158.026-.159.024-.161.024-.162.023-.163.023-.165.021-.166.02-.167.019-.169.018-.169.017-.171.016-.173.015-.173.014-.175.013-.175.012-.177.01-.178.01-.179.009-.179.007-.181.006-.182.006-.182.004-.184.003-.184.001-.185.001-.185-.001-.184-.001-.184-.003-.182-.004-.182-.006-.181-.006-.179-.007-.179-.009-.178-.01-.176-.01-.176-.012-.175-.013-.173-.014-.172-.015-.171-.016-.17-.017-.169-.018-.167-.019-.166-.02-.165-.021-.163-.023-.162-.023-.161-.024-.159-.024-.157-.026-.156-.027-.155-.028-.153-.028-.151-.03-.15-.03-.148-.032-.146-.032-.145-.033-.143-.034-.141-.034-.14-.036-.137-.036-.136-.037-.134-.038-.132-.039-.13-.039-.128-.041-.126-.041-.124-.041-.122-.043-.12-.043-.117-.044-.116-.044-.113-.046-.112-.046-.109-.046-.106-.048-.105-.048-.102-.048-.1-.05-.097-.049-.095-.051-.093-.051-.09-.052-.087-.052-.085-.053-.083-.053-.08-.054-.077-.054v4.153zm8.74-8.179l-.257.004-.254.005-.25.008-.247.011-.244.012-.241.014-.237.016-.233.018-.231.021-.226.022-.224.023-.22.026-.216.027-.212.028-.21.031-.205.032-.202.033-.198.034-.194.036-.191.038-.187.038-.183.04-.179.041-.175.042-.172.043-.168.043-.163.045-.16.046-.155.046-.152.048-.148.048-.143.048-.139.049-.136.05-.131.05-.126.051-.123.051-.118.051-.114.052-.11.052-.106.052-.101.052-.096.052-.092.052-.088.052-.083.052-.079.052-.074.051-.07.052-.065.051-.06.05-.056.05-.051.05-.023.025-.023.024-.021.024-.02.025-.019.024-.018.024-.017.023-.015.024-.014.023-.013.023-.012.023-.01.023-.01.022-.008.022-.006.023-.006.021-.004.022-.004.021-.001.021-.001.021.001.021.001.021.004.021.004.022.006.021.006.023.008.022.01.022.01.023.012.023.013.023.014.023.015.024.017.023.018.024.019.024.02.025.021.024.023.024.023.025.051.05.056.05.06.05.065.051.07.052.074.051.079.052.083.052.088.052.092.052.096.052.101.052.106.052.11.052.114.052.118.051.123.051.126.051.131.05.136.05.139.049.143.048.148.048.152.048.155.046.16.046.163.045.168.043.172.043.175.042.179.041.183.04.187.038.191.038.194.036.198.034.202.033.205.032.21.031.212.028.216.027.22.026.224.023.226.022.231.021.233.018.237.016.241.014.244.012.247.011.25.008.254.005.257.004.26.001.26-.001.257-.004.254-.005.25-.008.247-.011.244-.012.241-.014.237-.016.233-.018.231-.021.226-.022.224-.023.22-.026.216-.027.212-.028.21-.031.205-.032.202-.033.198-.034.194-.036.191-.038.187-.038.183-.04.179-.041.175-.042.172-.043.168-.043.163-.045.16-.046.155-.046.152-.048.148-.048.143-.048.139-.049.136-.05.131-.05.126-.051.123-.051.118-.051.114-.052.11-.052.106-.052.101-.052.096-.052.092-.052.088-.052.083-.052.079-.052.074-.051.07-.052.065-.051.06-.05.056-.05.051-.05.023-.025.023-.024.021-.024.02-.025.019-.024.018-.024.017-.023.015-.024.014-.023.013-.023.012-.023.01-.023.01-.022.008-.022.006-.023.006-.021.004-.022.004-.021.001-.021.001-.021-.001-.021-.001-.021-.004-.021-.004-.022-.006-.021-.006-.023-.008-.022-.01-.022-.01-.023-.012-.023-.013-.023-.014-.023-.015-.024-.017-.023-.018-.024-.019-.024-.02-.025-.021-.024-.023-.024-.023-.025-.051-.05-.056-.05-.06-.05-.065-.051-.07-.052-.074-.051-.079-.052-.083-.052-.088-.052-.092-.052-.096-.052-.101-.052-.106-.052-.11-.052-.114-.052-.118-.051-.123-.051-.126-.051-.131-.05-.136-.05-.139-.049-.143-.048-.148-.048-.152-.048-.155-.046-.16-.046-.163-.045-.168-.043-.172-.043-.175-.042-.179-.041-.183-.04-.187-.038-.191-.038-.194-.036-.198-.034-.202-.033-.205-.032-.21-.031-.212-.028-.216-.027-.22-.026-.224-.023-.226-.022-.231-.021-.233-.018-.237-.016-.241-.014-.244-.012-.247-.011-.25-.008-.254-.005-.257-.004-.26-.001-.26.001z"/></symbol></defs><defs><symbol id="my-svg-clock" width="24" height="24"><path transform="scale(.5)" d="M12 2c5.514 0 10 4.486 10 10s-4.486 10-10 10-10-4.486-10-10 4.486-10 10-10zm0-2c-6.627 0-12 5.373-12 12s5.373 12 12 12 12-5.373 12-12-5.373-12-12-12zm5.848 12.459c.202.038.202.333.001.372-1.907.361-6.045 1.111-6.547 1.111-.719 0-1.301-.582-1.301-1.301 0-.512.77-5.447 1.125-7.445.034-.192.312-.181.343.014l.985 6.238 5.394 1.011z"/></symbol></defs><g class="person-man"><rect x="200" y="222" fill="#85BBF0" stroke="#78A8D8" width="216" height="105" rx="2.5" ry="2.5" stroke-width="0.5"/><text fill="#FFFFFF" font-family="&quot;Open Sans&quot;, sans-serif" font-size="12" font-style="italic" lengthAdjust="spacing" textLength="73" x="271.5" y="242">&lt;&lt;component&gt;&gt;</text><text x="308" y="260" dominant-baseline="middle" fill="#FFFFFF" style="text-anchor: middle; font-size: 16px; font-weight: bold; font-family: &quot;Open Sans&quot;, sans-serif;"><tspan dy="0" alignment-baseline="mathematical">Uvicorn</tspan></text><text x="308" y="282" dominant-baseline="middle" fill="#FFFFFF" font-style="italic" style="text-anchor: middle; font-size: 14px; font-weight: normal; font-family: &quot;Open Sans&quot;, sans-serif;"><tspan dy="0" alignment-baseline="mathematical">[ASGI :8001]</tspan></text><text x="308" y="316" dominant-baseline="middle" fill="#FFFFFF" style="text-anchor: middle; font-size: 14px; font-weight: normal; font-family: &quot;Open Sans&quot;, sans-serif;"><tspan dy="0" alignment-baseline="mathematical">main.py</tspan></text></g><g class="person-man"><rect x="516" y="222" fill="#85BBF0" stroke="#78A8D8" width="216" height="105" rx="2.5" ry="2.5" stroke-width="0.5"/><text fill="#FFFFFF" font-family="&quot;Open Sans&quot;, sans-serif" font-size="12" font-style="italic" lengthAdjust="spacing" textLength="73" x="587.5" y="242">&lt;&lt;component&gt;&gt;</text><text x="624" y="260" dominant-baseline="middle" fill="#FFFFFF" style="text-anchor: middle; font-size: 16px; font-weight: bold; font-family: &quot;Open Sans&quot;, sans-serif;"><tspan dy="0" alignment-baseline="mathematical">Typer CLI</tspan></text><text x="624" y="282" dominant-baseline="middle" fill="#FFFFFF" font-style="italic" style="text-anchor: middle; font-size: 14px; font-weight: normal; font-family: &quot;Open Sans&quot;, sans-serif;"><tspan dy="0" alignment-baseline="mathematical">[offline]</tspan></text><text x="624" y="316" dominant-baseline="middle" fill="#FFFFFF" style="text-anchor: middle; font-size: 14px; font-weight: normal; font-family: &quot;Open Sans&quot;, sans-serif;"><tspan dy="0" alignment-baseline="mathematical">21 cmds · 4 groups</tspan></text></g><g class="person-man"><rect x="200" y="427" fill="#85BBF0" stroke="#78A8D8" width="216" height="105" rx="2.5" ry="2.5" stroke-width="0.5"/><text fill="#FFFFFF" font-family="&quot;Open Sans&quot;, sans-serif" font-size="12" font-style="italic" lengthAdjust="spacing" textLength="73" x="271.5" y="447">&lt;&lt;component&gt;&gt;</text><text x="308" y="465" dominant-baseline="middle" fill="#FFFFFF" style="text-anchor: middle; font-size: 16px; font-weight: bold; font-family: &quot;Open Sans&quot;, sans-serif;"><tspan dy="0" alignment-baseline="mathematical">data_router</tspan></text><text x="308" y="487" dominant-baseline="middle" fill="#FFFFFF" font-style="italic" style="text-anchor: middle; font-size: 14px; font-weight: normal; font-family: &quot;Open Sans&quot;, sans-serif;"><tspan dy="0" alignment-baseline="mathematical">[API]</tspan></text><text x="308" y="521" dominant-baseline="middle" fill="#FFFFFF" style="text-anchor: middle; font-size: 14px; font-weight: normal; font-family: &quot;Open Sans&quot;, sans-serif;"><tspan dy="0" alignment-baseline="mathematical">GET /ohlc · POST /indicator</tspan></text></g><g class="person-man"><rect x="516" y="427" fill="#85BBF0" stroke="#78A8D8" width="216" height="105" rx="2.5" ry="2.5" stroke-width="0.5"/><text fill="#FFFFFF" font-family="&quot;Open Sans&quot;, sans-serif" font-size="12" font-style="italic" lengthAdjust="spacing" textLength="73" x="587.5" y="447">&lt;&lt;component&gt;&gt;</text><text x="624" y="465" dominant-baseline="middle" fill="#FFFFFF" style="text-anchor: middle; font-size: 16px; font-weight: bold; font-family: &quot;Open Sans&quot;, sans-serif;"><tspan dy="0" alignment-baseline="mathematical">symbols_router</tspan></text><text x="624" y="487" dominant-baseline="middle" fill="#FFFFFF" font-style="italic" style="text-anchor: middle; font-size: 14px; font-weight: normal; font-family: &quot;Open Sans&quot;, sans-serif;"><tspan dy="0" alignment-baseline="mathematical">[API]</tspan></text><text x="624" y="521" dominant-baseline="middle" fill="#FFFFFF" style="text-anchor: middle; font-size: 14px; font-weight: normal; font-family: &quot;Open Sans&quot;, sans-serif;"><tspan dy="0" alignment-baseline="mathematical">/symbols · /symbol-info</tspan></text></g><g class="person-man"><rect x="200" y="632" fill="#85BBF0" stroke="#78A8D8" width="216" height="105" rx="2.5" ry="2.5" stroke-width="0.5"/><text fill="#FFFFFF" font-family="&quot;Open Sans&quot;, sans-serif" font-size="12" font-style="italic" lengthAdjust="spacing" textLength="73" x="271.5" y="652">&lt;&lt;component&gt;&gt;</text><text x="308" y="670" dominant-baseline="middle" fill="#FFFFFF" style="text-anchor: middle; font-size: 16px; font-weight: bold; font-family: &quot;Open Sans&quot;, sans-serif;"><tspan dy="0" alignment-baseline="mathematical">symbol_router</tspan></text><text x="308" y="692" dominant-baseline="middle" fill="#FFFFFF" font-style="italic" style="text-anchor: middle; font-size: 14px; font-weight: normal; font-family: &quot;Open Sans&quot;, sans-serif;"><tspan dy="0" alignment-baseline="mathematical">[API]</tspan></text><text x="308" y="726" dominant-baseline="middle" fill="#FFFFFF" style="text-anchor: middle; font-size: 14px; font-weight: normal; font-family: &quot;Open Sans&quot;, sans-serif;"><tspan dy="0" alignment-baseline="mathematical">/precisions</tspan></text></g><g class="person-man"><rect x="516" y="632" fill="#85BBF0" stroke="#78A8D8" width="216" height="105" rx="2.5" ry="2.5" stroke-width="0.5"/><text fill="#FFFFFF" font-family="&quot;Open Sans&quot;, sans-serif" font-size="12" font-style="italic" lengthAdjust="spacing" textLength="73" x="587.5" y="652">&lt;&lt;component&gt;&gt;</text><text x="624" y="670" dominant-baseline="middle" fill="#FFFFFF" style="text-anchor: middle; font-size: 16px; font-weight: bold; font-family: &quot;Open Sans&quot;, sans-serif;"><tspan dy="0" alignment-baseline="mathematical">files_router</tspan></text><text x="624" y="692" dominant-baseline="middle" fill="#FFFFFF" font-style="italic" style="text-anchor: middle; font-size: 14px; font-weight: normal; font-family: &quot;Open Sans&quot;, sans-serif;"><tspan dy="0" alignment-baseline="mathematical">[API]</tspan></text><text x="624" y="726" dominant-baseline="middle" fill="#FFFFFF" style="text-anchor: middle; font-size: 14px; font-weight: normal; font-family: &quot;Open Sans&quot;, sans-serif;"><tspan dy="0" alignment-baseline="mathematical">/files · /markets</tspan></text></g><g class="person-man"><rect x="200" y="837" fill="#85BBF0" stroke="#78A8D8" width="216" height="105" rx="2.5" ry="2.5" stroke-width="0.5"/><text fill="#FFFFFF" font-family="&quot;Open Sans&quot;, sans-serif" font-size="12" font-style="italic" lengthAdjust="spacing" textLength="73" x="271.5" y="857">&lt;&lt;component&gt;&gt;</text><text x="308" y="875" dominant-baseline="middle" fill="#FFFFFF" style="text-anchor: middle; font-size: 16px; font-weight: bold; font-family: &quot;Open Sans&quot;, sans-serif;"><tspan dy="0" alignment-baseline="mathematical">metadata_router</tspan></text><text x="308" y="897" dominant-baseline="middle" fill="#FFFFFF" font-style="italic" style="text-anchor: middle; font-size: 14px; font-weight: normal; font-family: &quot;Open Sans&quot;, sans-serif;"><tspan dy="0" alignment-baseline="mathematical">[API]</tspan></text><text x="308" y="931" dominant-baseline="middle" fill="#FFFFFF" style="text-anchor: middle; font-size: 14px; font-weight: normal; font-family: &quot;Open Sans&quot;, sans-serif;"><tspan dy="0" alignment-baseline="mathematical">4 metadata endpoints</tspan></text></g><g class="person-man"><rect x="516" y="837" fill="#85BBF0" stroke="#78A8D8" width="238" height="105" rx="2.5" ry="2.5" stroke-width="0.5"/><text fill="#FFFFFF" font-family="&quot;Open Sans&quot;, sans-serif" font-size="12" font-style="italic" lengthAdjust="spacing" textLength="73" x="598.5" y="857">&lt;&lt;component&gt;&gt;</text><text x="635" y="875" dominant-baseline="middle" fill="#FFFFFF" style="text-anchor: middle; font-size: 16px; font-weight: bold; font-family: &quot;Open Sans&quot;, sans-serif;"><tspan dy="0" alignment-baseline="mathematical">IndicatorService</tspan></text><text x="635" y="897" dominant-baseline="middle" fill="#FFFFFF" font-style="italic" style="text-anchor: middle; font-size: 14px; font-weight: normal; font-family: &quot;Open Sans&quot;, sans-serif;"><tspan dy="0" alignment-baseline="mathematical">[service]</tspan></text><text x="635" y="931" dominant-baseline="middle" fill="#FFFFFF" style="text-anchor: middle; font-size: 14px; font-weight: normal; font-family: &quot;Open Sans&quot;, sans-serif;"><tspan dy="0" alignment-baseline="mathematical">SMA · EMA · RSI · Bollinger · ROC</tspan></text></g><g class="person-man"><rect x="200" y="1042" fill="#85BBF0" stroke="#78A8D8" width="216" height="105" rx="2.5" ry="2.5" stroke-width="0.5"/><text fill="#FFFFFF" font-family="&quot;Open Sans&quot;, sans-serif" font-size="12" font-style="italic" lengthAdjust="spacing" textLength="73" x="271.5" y="1062">&lt;&lt;component&gt;&gt;</text><text x="308" y="1080" dominant-baseline="middle" fill="#FFFFFF" style="text-anchor: middle; font-size: 16px; font-weight: bold; font-family: &quot;Open Sans&quot;, sans-serif;"><tspan dy="0" alignment-baseline="mathematical">SymbolService</tspan></text><text x="308" y="1102" dominant-baseline="middle" fill="#FFFFFF" font-style="italic" style="text-anchor: middle; font-size: 14px; font-weight: normal; font-family: &quot;Open Sans&quot;, sans-serif;"><tspan dy="0" alignment-baseline="mathematical">[service]</tspan></text><text x="308" y="1136" dominant-baseline="middle" fill="#FFFFFF" style="text-anchor: middle; font-size: 14px; font-weight: normal; font-family: &quot;Open Sans&quot;, sans-serif;"><tspan dy="0" alignment-baseline="mathematical">symbol lookup · precisions</tspan></text></g><g class="person-man"><rect x="516" y="1042" fill="#85BBF0" stroke="#78A8D8" width="216" height="105" rx="2.5" ry="2.5" stroke-width="0.5"/><text fill="#FFFFFF" font-family="&quot;Open Sans&quot;, sans-serif" font-size="12" font-style="italic" lengthAdjust="spacing" textLength="73" x="587.5" y="1062">&lt;&lt;component&gt;&gt;</text><text x="624" y="1080" dominant-baseline="middle" fill="#FFFFFF" style="text-anchor: middle; font-size: 16px; font-weight: bold; font-family: &quot;Open Sans&quot;, sans-serif;"><tspan dy="0" alignment-baseline="mathematical">FileIndexService</tspan></text><text x="624" y="1102" dominant-baseline="middle" fill="#FFFFFF" font-style="italic" style="text-anchor: middle; font-size: 14px; font-weight: normal; font-family: &quot;Open Sans&quot;, sans-serif;"><tspan dy="0" alignment-baseline="mathematical">[service]</tspan></text><text x="624" y="1136" dominant-baseline="middle" fill="#FFFFFF" style="text-anchor: middle; font-size: 14px; font-weight: normal; font-family: &quot;Open Sans&quot;, sans-serif;"><tspan dy="0" alignment-baseline="mathematical">in-memory tree</tspan></text></g><g class="person-man"><rect x="200" y="1247" fill="#85BBF0" stroke="#78A8D8" width="216" height="105" rx="2.5" ry="2.5" stroke-width="0.5"/><text fill="#FFFFFF" font-family="&quot;Open Sans&quot;, sans-serif" font-size="12" font-style="italic" lengthAdjust="spacing" textLength="73" x="271.5" y="1267">&lt;&lt;component&gt;&gt;</text><text x="308" y="1285" dominant-baseline="middle" fill="#FFFFFF" style="text-anchor: middle; font-size: 16px; font-weight: bold; font-family: &quot;Open Sans&quot;, sans-serif;"><tspan dy="0" alignment-baseline="mathematical">DataLakeService</tspan></text><text x="308" y="1307" dominant-baseline="middle" fill="#FFFFFF" font-style="italic" style="text-anchor: middle; font-size: 14px; font-weight: normal; font-family: &quot;Open Sans&quot;, sans-serif;"><tspan dy="0" alignment-baseline="mathematical">[service]</tspan></text><text x="308" y="1341" dominant-baseline="middle" fill="#FFFFFF" style="text-anchor: middle; font-size: 14px; font-weight: normal; font-family: &quot;Open Sans&quot;, sans-serif;"><tspan dy="0" alignment-baseline="mathematical">download + parquet mgr</tspan></text></g><g class="person-man"><rect x="516" y="1247" fill="#85BBF0" stroke="#78A8D8" width="216" height="105" rx="2.5" ry="2.5" stroke-width="0.5"/><text fill="#FFFFFF" font-family="&quot;Open Sans&quot;, sans-serif" font-size="12" font-style="italic" lengthAdjust="spacing" textLength="73" x="587.5" y="1267">&lt;&lt;component&gt;&gt;</text><text x="624" y="1285" dominant-baseline="middle" fill="#FFFFFF" style="text-anchor: middle; font-size: 16px; font-weight: bold; font-family: &quot;Open Sans&quot;, sans-serif;"><tspan dy="0" alignment-baseline="mathematical">ohlc.py</tspan></text><text x="624" y="1307" dominant-baseline="middle" fill="#FFFFFF" font-style="italic" style="text-anchor: middle; font-size: 14px; font-weight: normal; font-family: &quot;Open Sans&quot;, sans-serif;"><tspan dy="0" alignment-baseline="mathematical">[util]</tspan></text><text x="624" y="1341" dominant-baseline="middle" fill="#FFFFFF" style="text-anchor: middle; font-size: 14px; font-weight: normal; font-family: &quot;Open Sans&quot;, sans-serif;"><tspan dy="0" alignment-baseline="mathematical">calculate_ohlc_data · footprint</tspan></text></g><g class="person-man"><rect x="200" y="1452" fill="#85BBF0" stroke="#78A8D8" width="216" height="105" rx="2.5" ry="2.5" stroke-width="0.5"/><text fill="#FFFFFF" font-family="&quot;Open Sans&quot;, sans-serif" font-size="12" font-style="italic" lengthAdjust="spacing" textLength="73" x="271.5" y="1472">&lt;&lt;component&gt;&gt;</text><text x="308" y="1490" dominant-baseline="middle" fill="#FFFFFF" style="text-anchor: middle; font-size: 16px; font-weight: bold; font-family: &quot;Open Sans&quot;, sans-serif;"><tspan dy="0" alignment-baseline="mathematical">polars.py</tspan></text><text x="308" y="1512" dominant-baseline="middle" fill="#FFFFFF" font-style="italic" style="text-anchor: middle; font-size: 14px; font-weight: normal; font-family: &quot;Open Sans&quot;, sans-serif;"><tspan dy="0" alignment-baseline="mathematical">[util]</tspan></text><text x="308" y="1546" dominant-baseline="middle" fill="#FFFFFF" style="text-anchor: middle; font-size: 14px; font-weight: normal; font-family: &quot;Open Sans&quot;, sans-serif;"><tspan dy="0" alignment-baseline="mathematical">aggregate · trades_to_footprint</tspan></text></g><g class="person-man"><rect x="516" y="1452" fill="#85BBF0" stroke="#78A8D8" width="216" height="105" rx="2.5" ry="2.5" stroke-width="0.5"/><text fill="#FFFFFF" font-family="&quot;Open Sans&quot;, sans-serif" font-size="12" font-style="italic" lengthAdjust="spacing" textLength="73" x="587.5" y="1472">&lt;&lt;component&gt;&gt;</text><text x="624" y="1490" dominant-baseline="middle" fill="#FFFFFF" style="text-anchor: middle; font-size: 16px; font-weight: bold; font-family: &quot;Open Sans&quot;, sans-serif;"><tspan dy="0" alignment-baseline="mathematical">files.py</tspan></text><text x="624" y="1512" dominant-baseline="middle" fill="#FFFFFF" font-style="italic" style="text-anchor: middle; font-size: 14px; font-weight: normal; font-family: &quot;Open Sans&quot;, sans-serif;"><tspan dy="0" alignment-baseline="mathematical">[util]</tspan></text><text x="624" y="1546" dominant-baseline="middle" fill="#FFFFFF" style="text-anchor: middle; font-size: 14px; font-weight: normal; font-family: &quot;Open Sans&quot;, sans-serif;"><tspan dy="0" alignment-baseline="mathematical">get_data_files · paths</tspan></text></g><g class="person-man"><rect x="200" y="1657" fill="#85BBF0" stroke="#78A8D8" width="223" height="105" rx="2.5" ry="2.5" stroke-width="0.5"/><text fill="#FFFFFF" font-family="&quot;Open Sans&quot;, sans-serif" font-size="12" font-style="italic" lengthAdjust="spacing" textLength="73" x="275" y="1677">&lt;&lt;component&gt;&gt;</text><text x="311.5" y="1695" dominant-baseline="middle" fill="#FFFFFF" style="text-anchor: middle; font-size: 16px; font-weight: bold; font-family: &quot;Open Sans&quot;, sans-serif;"><tspan dy="0" alignment-baseline="mathematical">file_indexer.py</tspan></text><text x="311.5" y="1717" dominant-baseline="middle" fill="#FFFFFF" font-style="italic" style="text-anchor: middle; font-size: 14px; font-weight: normal; font-family: &quot;Open Sans&quot;, sans-serif;"><tspan dy="0" alignment-baseline="mathematical">[util]</tspan></text><text x="311.5" y="1751" dominant-baseline="middle" fill="#FFFFFF" style="text-anchor: middle; font-size: 14px; font-weight: normal; font-family: &quot;Open Sans&quot;, sans-serif;"><tspan dy="0" alignment-baseline="mathematical">scans *.parquet → file_index.csv</tspan></text></g><g class="person-man"><rect x="523" y="1657" fill="#85BBF0" stroke="#78A8D8" width="216" height="105" rx="2.5" ry="2.5" stroke-width="0.5"/><text fill="#FFFFFF" font-family="&quot;Open Sans&quot;, sans-serif" font-size="12" font-style="italic" lengthAdjust="spacing" textLength="73" x="594.5" y="1677">&lt;&lt;component&gt;&gt;</text><text x="631" y="1695" dominant-baseline="middle" fill="#FFFFFF" style="text-anchor: middle; font-size: 16px; font-weight: bold; font-family: &quot;Open Sans&quot;, sans-serif;"><tspan dy="0" alignment-baseline="mathematical">CryptoDataDownloader</tspan></text><text x="631" y="1717" dominant-baseline="middle" fill="#FFFFFF" font-style="italic" style="text-anchor: middle; font-size: 14px; font-weight: normal; font-family: &quot;Open Sans&quot;, sans-serif;"><tspan dy="0" alignment-baseline="mathematical">[infra]</tspan></text><text x="631" y="1751" dominant-baseline="middle" fill="#FFFFFF" style="text-anchor: middle; font-size: 14px; font-weight: normal; font-family: &quot;Open Sans&quot;, sans-serif;"><tspan dy="0" alignment-baseline="mathematical">async aiohttp · 778 lines</tspan></text></g><g class="person-man"><rect x="200" y="1862" fill="#85BBF0" stroke="#78A8D8" width="216" height="105" rx="2.5" ry="2.5" stroke-width="0.5"/><text fill="#FFFFFF" font-family="&quot;Open Sans&quot;, sans-serif" font-size="12" font-style="italic" lengthAdjust="spacing" textLength="73" x="271.5" y="1882">&lt;&lt;component&gt;&gt;</text><text x="308" y="1900" dominant-baseline="middle" fill="#FFFFFF" style="text-anchor: middle; font-size: 16px; font-weight: bold; font-family: &quot;Open Sans&quot;, sans-serif;"><tspan dy="0" alignment-baseline="mathematical">DataURLGenerator</tspan></text><text x="308" y="1922" dominant-baseline="middle" fill="#FFFFFF" font-style="italic" style="text-anchor: middle; font-size: 14px; font-weight: normal; font-family: &quot;Open Sans&quot;, sans-serif;"><tspan dy="0" alignment-baseline="mathematical">[infra]</tspan></text><text x="308" y="1956" dominant-baseline="middle" fill="#FFFFFF" style="text-anchor: middle; font-size: 14px; font-weight: normal; font-family: &quot;Open Sans&quot;, sans-serif;"><tspan dy="0" alignment-baseline="mathematical">Binance historical URLs</tspan></text></g><g class="person-man"><rect x="516" y="1862" fill="#85BBF0" stroke="#78A8D8" width="216" height="105" rx="2.5" ry="2.5" stroke-width="0.5"/><text fill="#FFFFFF" font-family="&quot;Open Sans&quot;, sans-serif" font-size="12" font-style="italic" lengthAdjust="spacing" textLength="73" x="587.5" y="1882">&lt;&lt;component&gt;&gt;</text><text x="624" y="1900" dominant-baseline="middle" fill="#FFFFFF" style="text-anchor: middle; font-size: 16px; font-weight: bold; font-family: &quot;Open Sans&quot;, sans-serif;"><tspan dy="0" alignment-baseline="mathematical">ParquetFileManager</tspan></text><text x="624" y="1922" dominant-baseline="middle" fill="#FFFFFF" font-style="italic" style="text-anchor: middle; font-size: 14px; font-weight: normal; font-family: &quot;Open Sans&quot;, sans-serif;"><tspan dy="0" alignment-baseline="mathematical">[infra]</tspan></text><text x="624" y="1956" dominant-baseline="middle" fill="#FFFFFF" style="text-anchor: middle; font-size: 14px; font-weight: normal; font-family: &quot;Open Sans&quot;, sans-serif;"><tspan dy="0" alignment-baseline="mathematical">read · write · query</tspan></text></g><g class="person-man"><path fill="#85BBF0" stroke-width="0.5" stroke="#78A8D8" d="M200,2067c0,-10 108,-10 108,-10c0,0 108,0 108,10l0,105c0,10 -108,10 -108,10c0,0 -108,0 -108,-10l0,-105"/><path fill="none" stroke-width="0.5" stroke="#78A8D8" d="M200,2067c0,10 108,10 108,10c0,0 108,0 108,-10"/><text fill="#FFFFFF" font-family="&quot;Open Sans&quot;, sans-serif" font-size="12" font-style="italic" lengthAdjust="spacing" textLength="93" x="261.5" y="2087">&lt;&lt;component_db&gt;&gt;</text><text x="308" y="2105" dominant-baseline="middle" fill="#FFFFFF" style="text-anchor: middle; font-size: 16px; font-weight: bold; font-family: &quot;Open Sans&quot;, sans-serif;"><tspan dy="0" alignment-baseline="mathematical">Parquet Data Lake</tspan></text><text x="308" y="2127" dominant-baseline="middle" fill="#FFFFFF" font-style="italic" style="text-anchor: middle; font-size: 14px; font-weight: normal; font-family: &quot;Open Sans&quot;, sans-serif;"><tspan dy="0" alignment-baseline="mathematical">[PyArrow · LZ4]</tspan></text><text x="308" y="2161" dominant-baseline="middle" fill="#FFFFFF" style="text-anchor: middle; font-size: 14px; font-weight: normal; font-family: &quot;Open Sans&quot;, sans-serif;"><tspan dy="0" alignment-baseline="mathematical">{ex}/{market}/{sym}/{Y}/{M}/{D}/</tspan></text></g><g class="person-man"><path fill="#85BBF0" stroke-width="0.5" stroke="#78A8D8" d="M516,2067c0,-10 108,-10 108,-10c0,0 108,0 108,10l0,105c0,10 -108,10 -108,10c0,0 -108,0 -108,-10l0,-105"/><path fill="none" stroke-width="0.5" stroke="#78A8D8" d="M516,2067c0,10 108,10 108,10c0,0 108,0 108,-10"/><text fill="#FFFFFF" font-family="&quot;Open Sans&quot;, sans-serif" font-size="12" font-style="italic" lengthAdjust="spacing" textLength="93" x="577.5" y="2087">&lt;&lt;component_db&gt;&gt;</text><text x="624" y="2105" dominant-baseline="middle" fill="#FFFFFF" style="text-anchor: middle; font-size: 16px; font-weight: bold; font-family: &quot;Open Sans&quot;, sans-serif;"><tspan dy="0" alignment-baseline="mathematical">file_index.csv</tspan></text><text x="624" y="2127" dominant-baseline="middle" fill="#FFFFFF" font-style="italic" style="text-anchor: middle; font-size: 14px; font-weight: normal; font-family: &quot;Open Sans&quot;, sans-serif;"><tspan dy="0" alignment-baseline="mathematical">[CSV]</tspan></text><text x="624" y="2161" dominant-baseline="middle" fill="#FFFFFF" style="text-anchor: middle; font-size: 14px; font-weight: normal; font-family: &quot;Open Sans&quot;, sans-serif;"><tspan dy="0" alignment-baseline="mathematical">metadata</tspan></text></g><g class="person-man"><path fill="#85BBF0" stroke-width="0.5" stroke="#78A8D8" d="M200,2272c0,-10 108,-10 108,-10c0,0 108,0 108,10l0,105c0,10 -108,10 -108,10c0,0 -108,0 -108,-10l0,-105"/><path fill="none" stroke-width="0.5" stroke="#78A8D8" d="M200,2272c0,10 108,10 108,10c0,0 108,0 108,-10"/><text fill="#FFFFFF" font-family="&quot;Open Sans&quot;, sans-serif" font-size="12" font-style="italic" lengthAdjust="spacing" textLength="93" x="261.5" y="2292">&lt;&lt;component_db&gt;&gt;</text><text x="308" y="2310" dominant-baseline="middle" fill="#FFFFFF" style="text-anchor: middle; font-size: 16px; font-weight: bold; font-family: &quot;Open Sans&quot;, sans-serif;"><tspan dy="0" alignment-baseline="mathematical">Exchange info JSON</tspan></text><text x="308" y="2332" dominant-baseline="middle" fill="#FFFFFF" font-style="italic" style="text-anchor: middle; font-size: 14px; font-weight: normal; font-family: &quot;Open Sans&quot;, sans-serif;"><tspan dy="0" alignment-baseline="mathematical">[cache]</tspan></text><text x="308" y="2366" dominant-baseline="middle" fill="#FFFFFF" style="text-anchor: middle; font-size: 14px; font-weight: normal; font-family: &quot;Open Sans&quot;, sans-serif;"><tspan dy="0" alignment-baseline="mathematical">precisions · lot sizes</tspan></text></g><g><rect x="150" y="122" fill="none" stroke="#444444" width="654" height="2305" rx="2.5" ry="2.5" stroke-width="1" stroke-dasharray="7.0,7.0"/><text x="477" y="130" dominant-baseline="middle" fill="#444444" style="text-anchor: middle; font-size: 16px; font-weight: bold; font-family: &quot;Open Sans&quot;, sans-serif;"><tspan dy="0" alignment-baseline="mathematical">FastAPI Backend</tspan></text><text x="477" y="152" dominant-baseline="middle" fill="#444444" style="text-anchor: middle; font-size: 14px; font-weight: normal; font-family: &quot;Open Sans&quot;, sans-serif;"><tspan dy="0" alignment-baseline="mathematical">[CONTAINER]</tspan></text></g><defs><marker id="my-svg-arrowhead" refX="9" refY="5" markerUnits="userSpaceOnUse" markerWidth="12" markerHeight="12" orient="auto"><path d="M 0 0 L 10 5 L 0 10 z"/></marker></defs><defs><marker id="my-svg-arrowend" refX="1" refY="5" markerUnits="userSpaceOnUse" markerWidth="12" markerHeight="12" orient="auto"><path d="M 10 0 L 0 5 L 10 10 z"/></marker></defs><defs><marker id="my-svg-crosshead" markerWidth="15" markerHeight="8" orient="auto" refX="16" refY="4"><path fill="black" stroke="#000000" stroke-width="1px" d="M 9,2 V 6 L16,4 Z" style="stroke-dasharray: 0, 0;"/><path fill="none" stroke="#000000" stroke-width="1px" d="M 0,1 L 6,7 M 6,1 L 0,7" style="stroke-dasharray: 0, 0;"/></marker></defs><defs><marker id="my-svg-filled-head" refX="18" refY="7" markerWidth="20" markerHeight="28" orient="auto"><path d="M 18,7 L9,13 L14,7 L9,1 Z"/></marker></defs><g><line x1="330.0194174757282" y1="327" x2="345.1803278688525" y2="427" stroke-width="1" stroke="#444444" marker-end="url(#my-svg-arrowhead)" style="fill: none;"/><text x="357.0998726722903" y="377" dominant-baseline="middle" fill="#444444" style="text-anchor: middle; font-size: 12px; font-weight: normal; font-family: &quot;Open Sans&quot;, sans-serif;"><tspan dy="0" alignment-baseline="mathematical">mounts</tspan></text><path fill="none" stroke-width="1" stroke="#444444" d="M394.4466019417476,327 Q433.93331211204844,377 552.3934426229508,427" marker-end="url(#my-svg-arrowhead)"/><text x="492.92002228234924" y="377" dominant-baseline="middle" fill="#444444" style="text-anchor: middle; font-size: 12px; font-weight: normal; font-family: &quot;Open Sans&quot;, sans-serif;"><tspan dy="0" alignment-baseline="mathematical">mounts</tspan></text><path fill="none" stroke-width="1" stroke="#444444" d="M320.25945945945944,327 Q321.15962955962954,479.5 323.86013986013984,632" marker-end="url(#my-svg-arrowhead)"/><text x="341.55979965979964" y="479.5" dominant-baseline="middle" fill="#444444" style="text-anchor: middle; font-size: 12px; font-weight: normal; font-family: &quot;Open Sans&quot;, sans-serif;"><tspan dy="0" alignment-baseline="mathematical">mounts</tspan></text><path fill="none" stroke-width="1" stroke="#444444" d="M356.1297297297297,327 Q415.4609336609336,479.5 593.4545454545455,632" marker-end="url(#my-svg-arrowhead)"/><text x="494.2921375921376" y="479.5" dominant-baseline="middle" fill="#444444" style="text-anchor: middle; font-size: 12px; font-weight: normal; font-family: &quot;Open Sans&quot;, sans-serif;"><tspan dy="0" alignment-baseline="mathematical">mounts</tspan></text><path fill="none" stroke-width="1" stroke="#444444" d="M316.4943820224719,327 Q316.8907865168539,582 318.08,837" marker-end="url(#my-svg-arrowhead)"/><text x="336.7871910112359" y="582" dominant-baseline="middle" fill="#444444" style="text-anchor: middle; font-size: 12px; font-weight: normal; font-family: &quot;Open Sans&quot;, sans-serif;"><tspan dy="0" alignment-baseline="mathematical">mounts</tspan></text><path fill="none" stroke-width="1" stroke="#444444" d="M357.3783783783784,532 Q419.1474201474201,684.5 604.4545454545455,837" marker-end="url(#my-svg-arrowhead)"/><text x="493.4164619164619" y="684.5" dominant-baseline="middle" fill="#444444" style="text-anchor: middle; font-size: 12px; font-weight: normal; font-family: &quot;Open Sans&quot;, sans-serif;"><tspan dy="0" alignment-baseline="mathematical">uses</tspan></text><path fill="none" stroke-width="1" stroke="#444444" d="M341.34831460674155,532 Q407.1579026217229,787 604.5866666666667,1042" marker-end="url(#my-svg-arrowhead)"/><text x="492.46749063670416" y="787" dominant-baseline="middle" fill="#444444" style="text-anchor: middle; font-size: 12px; font-weight: normal; font-family: &quot;Open Sans&quot;, sans-serif;"><tspan dy="0" alignment-baseline="mathematical">queries</tspan></text><path fill="none" stroke-width="1" stroke="#444444" d="M333.512893982808,532 Q402.57766722977703,889.5 609.771986970684,1247" marker-end="url(#my-svg-arrowhead)"/><text x="483.642440476746" y="889.5" dominant-baseline="middle" fill="#444444" style="text-anchor: middle; font-size: 12px; font-weight: normal; font-family: &quot;Open Sans&quot;, sans-serif;"><tspan dy="0" alignment-baseline="mathematical">calls</tspan></text><path fill="none" stroke-width="1" stroke="#444444" d="M618.6404494382023,942 Q551.1303370786517,1197 348.6,1452" marker-end="url(#my-svg-arrowhead)"/><text x="496.12022471910115" y="1197" dominant-baseline="middle" fill="#444444" style="text-anchor: middle; font-size: 12px; font-weight: normal; font-family: &quot;Open Sans&quot;, sans-serif;"><tspan dy="0" alignment-baseline="mathematical">uses</tspan></text><path fill="none" stroke-width="1" stroke="#444444" d="M607.9157303370787,1147 Q543.7051310861423,1402 351.0733333333333,1657" marker-end="url(#my-svg-arrowhead)"/><text x="491.994531835206" y="1402" dominant-baseline="middle" fill="#444444" style="text-anchor: middle; font-size: 12px; font-weight: normal; font-family: &quot;Open Sans&quot;, sans-serif;"><tspan dy="0" alignment-baseline="mathematical">uses</tspan></text><path fill="none" stroke-width="1" stroke="#444444" d="M356.92432432432435,1352 Q417.5498865998866,1504.5 599.4265734265734,1657" marker-end="url(#my-svg-arrowhead)"/><text x="490.67544887544886" y="1504.5" dominant-baseline="middle" fill="#444444" style="text-anchor: middle; font-size: 12px; font-weight: normal; font-family: &quot;Open Sans&quot;, sans-serif;"><tspan dy="0" alignment-baseline="mathematical">uses</tspan></text><path fill="none" stroke-width="1" stroke="#444444" d="M341.34831460674155,1352 Q407.1579026217229,1607 604.5866666666667,1862" marker-end="url(#my-svg-arrowhead)"/><text x="485.46749063670416" y="1607" dominant-baseline="middle" fill="#444444" style="text-anchor: middle; font-size: 12px; font-weight: normal; font-family: &quot;Open Sans&quot;, sans-serif;"><tspan dy="0" alignment-baseline="mathematical">uses</tspan></text><path fill="none" stroke-width="1" stroke="#444444" d="M587.1650485436893,1762 Q544.3737864077669,1819.143271461717 416,1876.286542923434" marker-end="url(#my-svg-arrowhead)"/><text x="514.0825242718447" y="1819.143271461717" dominant-baseline="middle" fill="#444444" style="text-anchor: middle; font-size: 12px; font-weight: normal; font-family: &quot;Open Sans&quot;, sans-serif;"><tspan dy="0" alignment-baseline="mathematical">uses</tspan></text><path fill="none" stroke-width="1" stroke="#444444" d="M606.5945945945946,1762 Q547.7693725193725,1914.5 371.2937062937063,2067" marker-end="url(#my-svg-arrowhead)"/><text x="504.4441504441504" y="1914.5" dominant-baseline="middle" fill="#444444" style="text-anchor: middle; font-size: 12px; font-weight: normal; font-family: &quot;Open Sans&quot;, sans-serif;"><tspan dy="0" alignment-baseline="mathematical">writes</tspan></text><path fill="none" stroke-width="1" stroke="#444444" d="M316.4943820224719,1557 Q316.8907865168539,1812 318.08,2067" marker-end="url(#my-svg-arrowhead)"/><text x="332.2871910112359" y="1812" dominant-baseline="middle" fill="#444444" style="text-anchor: middle; font-size: 12px; font-weight: normal; font-family: &quot;Open Sans&quot;, sans-serif;"><tspan dy="0" alignment-baseline="mathematical">reads</tspan></text><path fill="none" stroke-width="1" stroke="#444444" d="M323.75945945945944,1762 Q323.913126063126,1914.5 324.37412587412587,2067" marker-end="url(#my-svg-arrowhead)"/><text x="339.56679266679265" y="1914.5" dominant-baseline="middle" fill="#444444" style="text-anchor: middle; font-size: 12px; font-weight: normal; font-family: &quot;Open Sans&quot;, sans-serif;"><tspan dy="0" alignment-baseline="mathematical">scans</tspan></text><path fill="none" stroke-width="1" stroke="#444444" d="M359.6297297297297,1762 Q418.2144301644302,1914.5 593.9685314685315,2067" marker-end="url(#my-svg-arrowhead)"/><text x="492.29913059913065" y="1914.5" dominant-baseline="middle" fill="#444444" style="text-anchor: middle; font-size: 12px; font-weight: normal; font-family: &quot;Open Sans&quot;, sans-serif;"><tspan dy="0" alignment-baseline="mathematical">writes</tspan></text></g><text x="227" y="20">Backend Components · app/ + cli/</text></svg>